REM DIRINDEX 1\5,1\2\6,1\2\7,1\3\8,1\3\9,1\4\10,1\4\11,1\4\12
REM DIRNAME folder01,folder02,folder03,folder04,folder05,folder06,folder07,folder08,folder09,folder10,folder11,folder12
TITLE ""
FILE "EJE_DB3000_5th_4B_40.mp3" MP3
  TRACK 01 AUDIO
    TITLE "0:"
    INDEX 01 00:00:00
  TRACK 02 AUDIO
    TITLE "10:cjc026_09732"
    INDEX 01 00:00:05
  TRACK 03 AUDIO
    TITLE "0:"
    INDEX 01 00:00:74
  TRACK 04 AUDIO
    TITLE "11:cjc026_09733"
    INDEX 01 00:01:26
  TRACK 05 AUDIO
    TITLE "0:"
    INDEX 01 00:02:38
  TRACK 06 AUDIO
    TITLE "12:cjc026_09734"
    INDEX 01 00:02:63
  TRACK 07 AUDIO
    TITLE "0:"
    INDEX 01 00:03:59
  TRACK 08 AUDIO
    TITLE "10:cjc026_09735"
    INDEX 01 00:04:09
  TRACK 09 AUDIO
    TITLE "0:"
    INDEX 01 00:05:07
  TRACK 10 AUDIO
    TITLE "11:cjc026_09736"
    INDEX 01 00:05:32
  TRACK 11 AUDIO
    TITLE "0:"
    INDEX 01 00:06:47
  TRACK 12 AUDIO
    TITLE "12:cjc026_09737"
    INDEX 01 00:07:00
  TRACK 13 AUDIO
    TITLE "0:"
    INDEX 01 00:07:72
  TRACK 14 AUDIO
    TITLE "10:cjc026_09738"
    INDEX 01 00:08:23
  TRACK 15 AUDIO
    TITLE "0:"
    INDEX 01 00:09:20
  TRACK 16 AUDIO
    TITLE "11:cjc026_09739"
    INDEX 01 00:09:47
  TRACK 17 AUDIO
    TITLE "0:"
    INDEX 01 00:10:63
  TRACK 18 AUDIO
    TITLE "12:cjc026_09740"
    INDEX 01 00:11:13
  TRACK 19 AUDIO
    TITLE "0:"
    INDEX 01 00:12:12
  TRACK 20 AUDIO
    TITLE "10:cjc026_09741"
    INDEX 01 00:12:38
  TRACK 21 AUDIO
    TITLE "0:"
    INDEX 01 00:13:32
  TRACK 22 AUDIO
    TITLE "11:cjc026_09742"
    INDEX 01 00:13:57
  TRACK 23 AUDIO
    TITLE "0:"
    INDEX 01 00:14:41
  TRACK 24 AUDIO
    TITLE "12:cjc026_09743"
    INDEX 01 00:14:68
  TRACK 25 AUDIO
    TITLE "0:"
    INDEX 01 00:15:62
  TRACK 26 AUDIO
    TITLE "10:cjc026_09744"
    INDEX 01 00:16:12
  TRACK 27 AUDIO
    TITLE "0:"
    INDEX 01 00:17:02
  TRACK 28 AUDIO
    TITLE "11:cjc026_09745"
    INDEX 01 00:17:27
  TRACK 29 AUDIO
    TITLE "0:"
    INDEX 01 00:18:27
  TRACK 30 AUDIO
    TITLE "12:cjc026_09746"
    INDEX 01 00:18:54
  TRACK 31 AUDIO
    TITLE "0:"
    INDEX 01 00:19:44
  TRACK 32 AUDIO
    TITLE "10:cjc026_09747"
    INDEX 01 00:19:69
  TRACK 33 AUDIO
    TITLE "0:"
    INDEX 01 00:20:63
  TRACK 34 AUDIO
    TITLE "11:cjc026_09748"
    INDEX 01 00:21:13
  TRACK 35 AUDIO
    TITLE "0:"
    INDEX 01 00:22:21
  TRACK 36 AUDIO
    TITLE "12:cjc026_09749"
    INDEX 01 00:22:46
  TRACK 37 AUDIO
    TITLE "0:"
    INDEX 01 00:23:40
  TRACK 38 AUDIO
    TITLE "10:cjc026_09750"
    INDEX 01 00:23:65
  TRACK 39 AUDIO
    TITLE "0:"
    INDEX 01 00:24:61
  TRACK 40 AUDIO
    TITLE "11:cjc026_09751"
    INDEX 01 00:25:13
  TRACK 41 AUDIO
    TITLE "0:"
    INDEX 01 00:26:17
  TRACK 42 AUDIO
    TITLE "12:cjc026_09752"
    INDEX 01 00:26:42
  TRACK 43 AUDIO
    TITLE "0:"
    INDEX 01 00:27:39
  TRACK 44 AUDIO
    TITLE "10:cjc026_09753"
    INDEX 01 00:27:65
  TRACK 45 AUDIO
    TITLE "0:"
    INDEX 01 00:28:55
  TRACK 46 AUDIO
    TITLE "11:cjc026_09754"
    INDEX 01 00:29:05
  TRACK 47 AUDIO
    TITLE "0:"
    INDEX 01 00:30:03
  TRACK 48 AUDIO
    TITLE "12:cjc026_09755"
    INDEX 01 00:30:30
  TRACK 49 AUDIO
    TITLE "0:"
    INDEX 01 00:31:18
  TRACK 50 AUDIO
    TITLE "10:cjc026_09756"
    INDEX 01 00:31:45
  TRACK 51 AUDIO
    TITLE "0:"
    INDEX 01 00:32:37
  TRACK 52 AUDIO
    TITLE "11:cjc026_09757"
    INDEX 01 00:32:64
  TRACK 53 AUDIO
    TITLE "0:"
    INDEX 01 00:33:66
  TRACK 54 AUDIO
    TITLE "12:cjc026_09758"
    INDEX 01 00:34:16
  TRACK 55 AUDIO
    TITLE "0:"
    INDEX 01 00:35:06
  TRACK 56 AUDIO
    TITLE "10:cjc026_09759"
    INDEX 01 00:35:33
  TRACK 57 AUDIO
    TITLE "0:"
    INDEX 01 00:36:29
  TRACK 58 AUDIO
    TITLE "11:cjc026_09760"
    INDEX 01 00:36:54
  TRACK 59 AUDIO
    TITLE "0:"
    INDEX 01 00:37:50
  TRACK 60 AUDIO
    TITLE "12:cjc026_09761"
    INDEX 01 00:38:02
  TRACK 61 AUDIO
    TITLE "0:"
    INDEX 01 00:38:71
  TRACK 62 AUDIO
    TITLE "10:cjc026_09762"
    INDEX 01 00:39:23
  TRACK 63 AUDIO
    TITLE "0:"
    INDEX 01 00:40:13
  TRACK 64 AUDIO
    TITLE "11:cjc026_09763"
    INDEX 01 00:40:38
  TRACK 65 AUDIO
    TITLE "0:"
    INDEX 01 00:41:34
  TRACK 66 AUDIO
    TITLE "12:cjc026_09764"
    INDEX 01 00:41:61
  TRACK 67 AUDIO
    TITLE "0:"
    INDEX 01 00:42:51
  TRACK 68 AUDIO
    TITLE "10:cjc026_09765"
    INDEX 01 00:43:01
  TRACK 69 AUDIO
    TITLE "0:"
    INDEX 01 00:43:68
  TRACK 70 AUDIO
    TITLE "11:cjc026_09766"
    INDEX 01 00:44:18
  TRACK 71 AUDIO
    TITLE "0:"
    INDEX 01 00:45:14
  TRACK 72 AUDIO
    TITLE "12:cjc026_09767"
    INDEX 01 00:45:39
  TRACK 73 AUDIO
    TITLE "0:"
    INDEX 01 00:46:31
